<mxfile host="65bd71144e">
    <diagram id="Xp_2F-ZKR8K3BNrEZ0hh" name="Page-1">
        <mxGraphModel dx="1165" dy="638" grid="1" gridSize="10" guides="1" tooltips="1" connect="1" arrows="1" fold="1" page="1" pageScale="1" pageWidth="850" pageHeight="1100" math="0" shadow="0">
            <root>
                <mxCell id="0"/>
                <mxCell id="1" parent="0"/>
                <mxCell id="18" value="" style="rounded=0;whiteSpace=wrap;html=1;" vertex="1" parent="1">
                    <mxGeometry x="130" y="420" width="630" height="410" as="geometry"/>
                </mxCell>
                <mxCell id="19" value="" style="strokeWidth=1;shadow=0;dashed=0;align=center;html=1;shape=mxgraph.mockup.containers.browserWindow;rSize=0;strokeColor=#666666;strokeColor2=#008cff;strokeColor3=#c4c4c4;mainText=,;recursiveResize=0;" vertex="1" parent="1">
                    <mxGeometry x="150" y="430" width="590" height="390" as="geometry"/>
                </mxCell>
                <mxCell id="20" value="Page 1" style="strokeWidth=1;shadow=0;dashed=0;align=center;html=1;shape=mxgraph.mockup.containers.anchor;fontSize=17;fontColor=#666666;align=left;" vertex="1" parent="19">
                    <mxGeometry x="60" y="12" width="110" height="26" as="geometry"/>
                </mxCell>
                <mxCell id="21" value="https://www.draw.io" style="strokeWidth=1;shadow=0;dashed=0;align=center;html=1;shape=mxgraph.mockup.containers.anchor;rSize=0;fontSize=17;fontColor=#666666;align=left;" vertex="1" parent="19">
                    <mxGeometry x="130" y="60" width="250" height="26" as="geometry"/>
                </mxCell>
                <mxCell id="93" value="Erzeuger" style="text;html=1;strokeColor=none;fillColor=none;align=center;verticalAlign=middle;whiteSpace=wrap;rounded=0;shadow=1;glass=0;labelBorderColor=default;sketch=1;" vertex="1" parent="19">
                    <mxGeometry x="10" y="175" width="60" height="30" as="geometry"/>
                </mxCell>
                <mxCell id="99" value="Ablaufsdatum" style="text;html=1;strokeColor=none;fillColor=none;align=center;verticalAlign=middle;whiteSpace=wrap;rounded=0;shadow=1;glass=0;labelBorderColor=default;sketch=1;" vertex="1" parent="19">
                    <mxGeometry x="270" y="175" width="70" height="30" as="geometry"/>
                </mxCell>
                <mxCell id="97" value="Erzeugungsdatum" style="text;html=1;strokeColor=none;fillColor=none;align=center;verticalAlign=middle;whiteSpace=wrap;rounded=0;shadow=1;glass=0;labelBorderColor=default;sketch=1;" vertex="1" parent="19">
                    <mxGeometry x="180" y="175" width="60" height="30" as="geometry"/>
                </mxCell>
                <mxCell id="96" value="Aktion" style="text;html=1;strokeColor=none;fillColor=none;align=center;verticalAlign=middle;whiteSpace=wrap;rounded=0;shadow=1;glass=0;labelBorderColor=default;sketch=1;" vertex="1" parent="19">
                    <mxGeometry x="460" y="175" width="60" height="30" as="geometry"/>
                </mxCell>
                <mxCell id="95" value="Status Info" style="text;html=1;strokeColor=none;fillColor=none;align=center;verticalAlign=middle;whiteSpace=wrap;rounded=0;shadow=1;glass=0;labelBorderColor=default;sketch=1;" vertex="1" parent="19">
                    <mxGeometry x="350" y="175" width="70" height="30" as="geometry"/>
                </mxCell>
                <mxCell id="94" value="Beschreibung" style="text;html=1;strokeColor=none;fillColor=none;align=center;verticalAlign=middle;whiteSpace=wrap;rounded=0;shadow=1;glass=0;labelBorderColor=default;sketch=1;" vertex="1" parent="19">
                    <mxGeometry x="85" y="175" width="55" height="30" as="geometry"/>
                </mxCell>
                <mxCell id="101" value="Tabelle&amp;nbsp; für alle Test-Host" style="text;html=1;strokeColor=none;fillColor=none;align=center;verticalAlign=middle;whiteSpace=wrap;rounded=0;shadow=1;glass=0;labelBorderColor=default;sketch=1;" vertex="1" parent="19">
                    <mxGeometry x="180" y="140" width="150" height="30" as="geometry"/>
                </mxCell>
                <mxCell id="102" value="" style="endArrow=none;html=1;entryX=1;entryY=0.5;entryDx=0;entryDy=0;" edge="1" parent="19" target="93">
                    <mxGeometry width="50" height="50" relative="1" as="geometry">
                        <mxPoint x="70" y="390" as="sourcePoint"/>
                        <mxPoint x="110" y="260" as="targetPoint"/>
                        <Array as="points">
                            <mxPoint x="70" y="240"/>
                        </Array>
                    </mxGeometry>
                </mxCell>
                <mxCell id="110" value="" style="endArrow=none;html=1;entryX=1;entryY=0.5;entryDx=0;entryDy=0;exitX=0.731;exitY=0.997;exitDx=0;exitDy=0;exitPerimeter=0;" edge="1" parent="19" source="19">
                    <mxGeometry width="50" height="50" relative="1" as="geometry">
                        <mxPoint x="429.75" y="380" as="sourcePoint"/>
                        <mxPoint x="430" y="190" as="targetPoint"/>
                        <Array as="points">
                            <mxPoint x="428.75" y="280"/>
                        </Array>
                    </mxGeometry>
                </mxCell>
                <mxCell id="109" value="" style="endArrow=none;html=1;entryX=1;entryY=0.5;entryDx=0;entryDy=0;exitX=0.593;exitY=0.997;exitDx=0;exitDy=0;exitPerimeter=0;" edge="1" parent="19" source="19">
                    <mxGeometry width="50" height="50" relative="1" as="geometry">
                        <mxPoint x="350" y="380" as="sourcePoint"/>
                        <mxPoint x="351.25" y="186.96000000000004" as="targetPoint"/>
                    </mxGeometry>
                </mxCell>
                <mxCell id="108" value="" style="endArrow=none;html=1;entryX=1;entryY=0.5;entryDx=0;entryDy=0;exitX=0.443;exitY=1;exitDx=0;exitDy=0;exitPerimeter=0;" edge="1" parent="19" source="19">
                    <mxGeometry width="50" height="50" relative="1" as="geometry">
                        <mxPoint x="260" y="380" as="sourcePoint"/>
                        <mxPoint x="261.25" y="186.96000000000004" as="targetPoint"/>
                    </mxGeometry>
                </mxCell>
                <mxCell id="107" value="" style="endArrow=none;html=1;entryX=1;entryY=0.5;entryDx=0;entryDy=0;" edge="1" parent="19">
                    <mxGeometry width="50" height="50" relative="1" as="geometry">
                        <mxPoint x="151" y="390" as="sourcePoint"/>
                        <mxPoint x="151.25" y="186.96000000000004" as="targetPoint"/>
                    </mxGeometry>
                </mxCell>
                <mxCell id="111" value="&lt;span style=&quot;font-size: 11px;&quot;&gt;Button&lt;br&gt;&lt;/span&gt;Öffnen" style="strokeWidth=1;shadow=0;dashed=0;align=center;html=1;shape=mxgraph.mockup.buttons.button;strokeColor=#666666;fontColor=#ffffff;mainText=;buttonStyle=round;fontSize=17;fontStyle=1;fillColor=#0000FF;whiteSpace=wrap;rounded=1;glass=0;labelBorderColor=default;" vertex="1" parent="19">
                    <mxGeometry x="430" y="220" width="60" height="35" as="geometry"/>
                </mxCell>
                <mxCell id="112" value="&lt;span style=&quot;font-size: 11px;&quot;&gt;Button&lt;br&gt;&lt;/span&gt;Löschen" style="strokeWidth=1;shadow=0;dashed=0;align=center;html=1;shape=mxgraph.mockup.buttons.button;strokeColor=#666666;fontColor=#ffffff;mainText=;buttonStyle=round;fontSize=17;fontStyle=1;fillColor=#0000FF;whiteSpace=wrap;rounded=1;glass=0;labelBorderColor=default;" vertex="1" parent="19">
                    <mxGeometry x="500" y="220" width="70" height="35" as="geometry"/>
                </mxCell>
                <mxCell id="114" value="" style="endArrow=none;html=1;entryX=0.998;entryY=0.684;entryDx=0;entryDy=0;entryPerimeter=0;exitX=-0.002;exitY=0.695;exitDx=0;exitDy=0;exitPerimeter=0;" edge="1" parent="19">
                    <mxGeometry width="50" height="50" relative="1" as="geometry">
                        <mxPoint x="-5.684341886080802e-14" y="324.17999999999995" as="sourcePoint"/>
                        <mxPoint x="590.0000000000001" y="320.0000000000001" as="targetPoint"/>
                    </mxGeometry>
                </mxCell>
                <mxCell id="115" value="" style="endArrow=none;html=1;entryX=0.998;entryY=0.684;entryDx=0;entryDy=0;entryPerimeter=0;exitX=-0.002;exitY=0.695;exitDx=0;exitDy=0;exitPerimeter=0;" edge="1" parent="19">
                    <mxGeometry width="50" height="50" relative="1" as="geometry">
                        <mxPoint x="-5.684341886080802e-14" y="364.17999999999995" as="sourcePoint"/>
                        <mxPoint x="590.0000000000001" y="360.0000000000001" as="targetPoint"/>
                    </mxGeometry>
                </mxCell>
                <mxCell id="116" value="Abgeschlossen" style="text;html=1;strokeColor=none;fillColor=none;align=center;verticalAlign=middle;whiteSpace=wrap;rounded=0;shadow=1;glass=0;labelBorderColor=default;sketch=0;fontSize=10;" vertex="1" parent="19">
                    <mxGeometry x="350" y="220" width="80" height="30" as="geometry"/>
                </mxCell>
                <mxCell id="117" value="Offen" style="text;html=1;strokeColor=none;fillColor=none;align=center;verticalAlign=middle;whiteSpace=wrap;rounded=0;shadow=1;glass=0;labelBorderColor=default;sketch=0;fontSize=10;" vertex="1" parent="19">
                    <mxGeometry x="350" y="270" width="80" height="30" as="geometry"/>
                </mxCell>
                <mxCell id="118" value="&lt;span style=&quot;font-size: 11px;&quot;&gt;Button&lt;br&gt;&lt;/span&gt;Öffnen" style="strokeWidth=1;shadow=0;dashed=0;align=center;html=1;shape=mxgraph.mockup.buttons.button;strokeColor=#666666;fontColor=#ffffff;mainText=;buttonStyle=round;fontSize=17;fontStyle=1;fillColor=#0000FF;whiteSpace=wrap;rounded=1;glass=0;labelBorderColor=default;" vertex="1" parent="19">
                    <mxGeometry x="460" y="280" width="60" height="35" as="geometry"/>
                </mxCell>
                <mxCell id="113" value="" style="endArrow=none;html=1;entryX=0.998;entryY=0.684;entryDx=0;entryDy=0;entryPerimeter=0;exitX=-0.002;exitY=0.695;exitDx=0;exitDy=0;exitPerimeter=0;" edge="1" parent="1" source="19" target="19">
                    <mxGeometry width="50" height="50" relative="1" as="geometry">
                        <mxPoint x="320" y="750" as="sourcePoint"/>
                        <mxPoint x="370" y="700" as="targetPoint"/>
                    </mxGeometry>
                </mxCell>
            </root>
        </mxGraphModel>
    </diagram>
</mxfile>